<!-- public/images/wallets/trustwallet.svg -->
<svg xmlns="http://www.w3.org/2000/svg" viewBox="0 0 1024 1024" width="1024" height="1024">
  <rect width="1024" height="1024" rx="150" fill="#3375BB"/>
  <path d="M512.2,245c99.8,0,188.1,20.3,250.6,40.7,39.7,13,67.5,36.1,67.5,62.9v163.9c0,65.1-25.5,126.2-72.4,184.5 c-45.9,56.8-110.5,106.7-189.6,147.7c-15.2,7.9-33.8,7.9-48.9,0c-79.2-41-143.8-90.9-189.7-147.7 c-46.9-58.3-72.4-119.4-72.4-184.5V348.6c0-26.8,27.8-49.9,67.5-62.9C323.2,265.3,411.6,245,512.2,245z" fill="white"/>
  <path d="M511.5,335.6c-75.3,0-141.9,15.3-189.2,30.6c-23.4,7.5-34.9,16.1-34.9,22.5v123.5c0,49,19.2,95,54.5,139 c34.7,42.8,83.3,80.4,142.8,111.6c8.5,4.5,18.8,4.5,27.3,0c59.5-31.2,108.1-68.9,142.8-111.6c35.4-44,54.5-90,54.5-139V388.8 c0-6.4-11.5-15-34.9-22.5C654,351,587.4,335.6,511.5,335.6z" fill="#3375BB"/>
</svg>