<!-- public/images/wallets/walletconnect.svg -->
<svg xmlns="http://www.w3.org/2000/svg" width="300" height="185" viewBox="0 0 300 185">
  <path d="M61.439,36.256c48.91-47.888,128.212-47.888,177.123,0l5.886,5.764a6.041,6.041,0,0,1,0,8.707l-20.136,19.716a3.179,3.179,0,0,1-4.403,0L210.24,60.999c-34.091-33.377-89.39-33.377-123.481,0L76.877,70.442a3.179,3.179,0,0,1-4.403,0L52.338,50.727a6.041,6.041,0,0,1,0-8.707ZM280.206,77.03l17.922,17.553a6.041,6.041,0,0,1,0,8.707L225.469,173.31a6.37,6.37,0,0,1-8.806,0l-51.252-50.195a1.59,1.59,0,0,0-2.202,0l-51.252,50.195a6.37,6.37,0,0,1-8.806,0L30.872,103.29a6.041,6.041,0,0,1,0-8.707l17.922-17.553a6.37,6.37,0,0,1,8.806,0l51.252,50.195a1.59,1.59,0,0,0,2.202,0l51.252-50.195a6.37,6.37,0,0,1,8.806,0l51.252,50.195a1.59,1.59,0,0,0,2.202,0l51.252-50.195A6.37,6.37,0,0,1,280.206,77.03Z" fill="#3b99fc" />
</svg>